<?xml version="1.0" encoding="UTF-8"?>
<svg width="32" height="32" viewBox="0 0 32 32" fill="none" xmlns="http://www.w3.org/2000/svg">
  <rect width="32" height="32" rx="16" fill="#1A1A1A"/>
  <path d="M24 16C24 16.7879 23.8448 17.5681 23.5433 18.2961C23.2417 19.0241 22.7998 19.6855 22.2426 20.2426C21.6855 20.7998 21.0241 21.2417 20.2961 21.5433C19.5681 21.8448 18.7879 22 18 22H14C13.2121 22 12.4319 21.8448 11.7039 21.5433C10.9759 21.2417 10.3145 20.7998 9.75736 20.2426C9.20019 19.6855 8.75825 19.0241 8.45672 18.2961C8.15519 17.5681 8 16.7879 8 16C8 14.4087 8.63214 12.8826 9.75736 11.7574C10.8826 10.6321 12.4087 10 14 10H15V13C15 13.7956 15.3161 14.5587 15.8787 15.1213C16.4413 15.6839 17.2044 16 18 16C18.7956 16 19.5587 15.6839 20.1213 15.1213C20.6839 14.5587 21 13.7956 21 13V10H18M17 10H18" stroke="#A855F7" stroke-width="2" stroke-linecap="round" stroke-linejoin="round"/>
</svg>